<svg width="374" height="73" viewBox="0 0 374 73" fill="none" xmlns="http://www.w3.org/2000/svg">
<path d="M3.85913 1.072H7.79513V30.4H23.9711V34.048H3.85913V1.072ZM30.2029 1.072H34.1389V34.048H30.2029V1.072ZM43.4685 1.072H47.4045V30.4H63.5805V34.048H43.4685V1.072ZM69.8123 1.072H73.7483V34.048H69.8123V1.072ZM93.9259 0.159998H95.5099L109.67 34.048H105.494L100.982 23.44H88.4539L84.0379 34.048H79.8619L93.9259 0.159998ZM95.3659 9.616L94.9819 8.368L94.6939 7.264L94.3579 8.32L93.9739 9.616L89.9419 19.888H99.4459L95.3659 9.616ZM129.672 1.072H133.608V15.04H149.688V1.072H153.624V34.048H149.688V18.784H133.608V34.048H129.672V1.072ZM173.801 0.159998H175.385L189.545 34.048H185.369L180.857 23.44H168.329L163.913 34.048H159.737L173.801 0.159998ZM175.241 9.616L174.857 8.368L174.569 7.264L174.233 8.32L173.849 9.616L169.817 19.888H179.321L175.241 9.616ZM195.625 1.072H199.561V30.4H215.737V34.048H195.625V1.072ZM221.969 1.072H225.905V34.048H221.969V1.072ZM247.426 34.48C244.834 34.48 242.562 33.904 240.61 32.752C238.658 31.568 237.154 29.952 236.098 27.904C235.042 25.856 234.514 23.568 234.514 21.04V1.072H238.45V21.04C238.45 23.024 238.834 24.768 239.602 26.272C240.37 27.776 241.426 28.944 242.77 29.776C244.146 30.576 245.73 30.976 247.522 30.976C250.274 30.976 252.466 30.064 254.098 28.24C255.762 26.416 256.594 24.016 256.594 21.04V1.072H260.53V21.04C260.53 23.696 259.97 26.048 258.85 28.096C257.73 30.112 256.178 31.68 254.194 32.8C252.21 33.92 249.954 34.48 247.426 34.48ZM269.125 1.072H273.061V30.4H289.237V34.048H269.125V1.072ZM295.469 1.072H299.405V34.048H295.469V1.072ZM308.734 0.591998H310.414L331.006 26.32L331.678 27.52L331.63 26.176L331.582 1.024H335.47V34.048H333.454L330.67 31.312L314.302 11.632L312.43 9.136L312.67 12.304V34.048H308.734V0.591998ZM355.629 0.159998H357.213L371.373 34.048H367.197L362.685 23.44H350.157L345.741 34.048H341.565L355.629 0.159998ZM357.069 9.616L356.685 8.368L356.397 7.264L356.061 8.32L355.677 9.616L351.645 19.888H361.149L357.069 9.616ZM5.67441 55.56C6.57041 55.56 7.36241 55.776 8.05041 56.208C8.75441 56.624 9.29841 57.216 9.68241 57.984C10.0664 58.736 10.2584 59.608 10.2584 60.6C10.2584 62.216 9.73041 63.472 8.67441 64.368C7.61841 65.264 6.05841 65.712 3.99441 65.712L1.57041 65.664V72H0.562406V55.56H5.67441ZM4.28241 64.752C5.85041 64.752 7.06641 64.384 7.93041 63.648C8.81041 62.912 9.25041 61.872 9.25041 60.528C9.25041 59.28 8.89041 58.304 8.17041 57.6C7.45041 56.88 6.50641 56.52 5.33841 56.52H1.57041V64.776C2.00241 64.792 2.66641 64.784 3.56241 64.752H4.28241ZM34.4155 55.56H35.4235V62.928H44.9275V55.56H45.9355V71.976H44.9275V63.888H35.4235V71.976H34.4155V55.56ZM78.611 72.336C77.059 72.336 75.651 71.976 74.387 71.256C73.139 70.536 72.155 69.552 71.435 68.304C70.715 67.04 70.355 65.624 70.355 64.056V63.6C70.355 62.016 70.707 60.584 71.411 59.304C72.131 58.008 73.107 56.992 74.339 56.256C75.587 55.52 76.979 55.152 78.515 55.152C80.051 55.152 81.443 55.52 82.691 56.256C83.939 56.992 84.923 58.008 85.643 59.304C86.363 60.584 86.723 62.016 86.723 63.6V64.056C86.723 65.64 86.371 67.064 85.667 68.328C84.979 69.576 84.019 70.56 82.787 71.28C81.555 71.984 80.163 72.336 78.611 72.336ZM78.539 71.424C79.883 71.424 81.099 71.104 82.187 70.464C83.291 69.824 84.155 68.944 84.779 67.824C85.403 66.688 85.715 65.432 85.715 64.056V63.6C85.715 62.208 85.395 60.944 84.755 59.808C84.115 58.656 83.243 57.752 82.139 57.096C81.035 56.44 79.819 56.112 78.491 56.112C77.163 56.112 75.955 56.44 74.867 57.096C73.779 57.752 72.923 58.656 72.299 59.808C71.675 60.944 71.363 62.208 71.363 63.6V64.056C71.363 65.432 71.675 66.688 72.299 67.824C72.923 68.944 73.779 69.824 74.867 70.464C75.971 71.104 77.195 71.424 78.539 71.424ZM114.547 56.544H108.787V55.56H121.363V56.544H115.627V71.976H114.547V56.544ZM151.684 72.336C150.132 72.336 148.724 71.976 147.46 71.256C146.212 70.536 145.228 69.552 144.508 68.304C143.788 67.04 143.428 65.624 143.428 64.056V63.6C143.428 62.016 143.78 60.584 144.484 59.304C145.204 58.008 146.18 56.992 147.412 56.256C148.66 55.52 150.052 55.152 151.588 55.152C153.124 55.152 154.516 55.52 155.764 56.256C157.012 56.992 157.996 58.008 158.716 59.304C159.436 60.584 159.796 62.016 159.796 63.6V64.056C159.796 65.64 159.444 67.064 158.74 68.328C158.052 69.576 157.092 70.56 155.86 71.28C154.628 71.984 153.236 72.336 151.684 72.336ZM151.612 71.424C152.956 71.424 154.172 71.104 155.26 70.464C156.364 69.824 157.228 68.944 157.852 67.824C158.476 66.688 158.788 65.432 158.788 64.056V63.6C158.788 62.208 158.468 60.944 157.828 59.808C157.188 58.656 156.316 57.752 155.212 57.096C154.108 56.44 152.892 56.112 151.564 56.112C150.236 56.112 149.028 56.44 147.94 57.096C146.852 57.752 145.996 58.656 145.372 59.808C144.748 60.944 144.436 62.208 144.436 63.6V64.056C144.436 65.432 144.748 66.688 145.372 67.824C145.996 68.944 146.852 69.824 147.94 70.464C149.044 71.104 150.268 71.424 151.612 71.424ZM197.899 65.16C197.899 66.616 197.587 67.888 196.963 68.976C196.339 70.064 195.499 70.904 194.443 71.496C193.387 72.072 192.235 72.36 190.987 72.36C189.355 72.36 187.955 72.008 186.787 71.304C185.619 70.584 184.723 69.6 184.099 68.352C183.491 67.088 183.187 65.648 183.187 64.032C183.187 62.416 183.539 60.944 184.243 59.616C184.963 58.272 185.947 57.216 187.195 56.448C188.443 55.68 189.835 55.296 191.371 55.296C192.235 55.296 193.067 55.432 193.867 55.704C194.667 55.96 195.323 56.336 195.835 56.832C196.363 57.328 196.651 57.92 196.699 58.608L195.715 58.632C195.667 58.12 195.403 57.688 194.923 57.336C194.443 56.968 193.867 56.696 193.195 56.52C192.539 56.344 191.915 56.256 191.323 56.256C189.995 56.256 188.787 56.608 187.699 57.312C186.611 58.016 185.755 58.968 185.131 60.168C184.507 61.352 184.195 62.648 184.195 64.056C184.195 65.48 184.467 66.752 185.011 67.872C185.555 68.976 186.347 69.84 187.387 70.464C188.427 71.088 189.659 71.4 191.083 71.4C192.059 71.4 192.995 71.144 193.891 70.632C194.787 70.12 195.507 69.408 196.051 68.496C196.611 67.584 196.891 66.568 196.891 65.448V64.728H190.915V63.768H197.899V65.16ZM233.766 72C233.558 72.128 233.286 72.192 232.95 72.192C232.294 72.192 231.758 71.912 231.342 71.352L228.438 67.344C227.91 66.624 227.398 66.112 226.902 65.808C226.422 65.488 225.846 65.288 225.174 65.208V64.32H227.046C228.182 64.32 229.102 63.968 229.806 63.264C230.51 62.544 230.862 61.6 230.862 60.432C230.862 59.296 230.526 58.368 229.854 57.648C229.182 56.912 228.334 56.544 227.31 56.544H223.134V72H222.126V55.584H227.406C228.254 55.584 229.014 55.792 229.686 56.208C230.374 56.624 230.91 57.2 231.294 57.936C231.678 58.656 231.87 59.48 231.87 60.408C231.87 61.704 231.526 62.76 230.838 63.576C230.15 64.376 229.23 64.816 228.078 64.896C227.534 64.928 227.11 64.944 226.806 64.944C227.222 65.008 227.534 65.096 227.742 65.208C227.95 65.32 228.166 65.52 228.39 65.808C228.902 66.48 229.542 67.336 230.31 68.376C231.078 69.4 231.686 70.224 232.134 70.848C232.342 71.136 232.606 71.28 232.926 71.28C233.118 71.28 233.262 71.256 233.358 71.208L233.766 72ZM262.297 55.104H262.489L269.665 71.976H268.537L266.161 66.384H258.625L256.273 71.976H255.169L262.297 55.104ZM263.257 59.376C263.065 58.928 262.873 58.432 262.681 57.888C262.505 57.344 262.401 57.016 262.369 56.904L262.225 57.384C262.017 58.184 261.801 58.848 261.577 59.376L259.009 65.424H265.777L263.257 59.376ZM297.617 55.56C298.513 55.56 299.305 55.776 299.993 56.208C300.697 56.624 301.241 57.216 301.625 57.984C302.009 58.736 302.201 59.608 302.201 60.6C302.201 62.216 301.673 63.472 300.617 64.368C299.561 65.264 298.001 65.712 295.937 65.712L293.513 65.664V72H292.505V55.56H297.617ZM296.225 64.752C297.793 64.752 299.009 64.384 299.873 63.648C300.753 62.912 301.193 61.872 301.193 60.528C301.193 59.28 300.833 58.304 300.113 57.6C299.393 56.88 298.449 56.52 297.281 56.52H293.513V64.776C293.945 64.792 294.609 64.784 295.505 64.752H296.225ZM326.358 55.56H327.366V62.928H336.87V55.56H337.878V71.976H336.87V63.888H327.366V71.976H326.358V55.56ZM362.441 56.856C362.281 56.552 362.025 56.384 361.673 56.352V55.32C362.457 55.4 363.025 55.76 363.377 56.4L367.337 63.72L371.825 55.536H373.073L367.865 64.752V71.976H366.881V64.8L362.441 56.856Z" fill="white"/>
</svg>
